<svg width="24" height="24" fill="none" xmlns="http://www.w3.org/2000/svg"><path d="M20.973 6.717a7.19 7.19 0 0 1-1.663 1.6v.495a10.972 10.972 0 0 1-3.258 7.822A10.96 10.96 0 0 1 8.194 19.8a10.994 10.994 0 0 1-4.898-1.133.225.225 0 0 1-.134-.207v-.099c0-.129.104-.233.233-.233a7.96 7.96 0 0 0 4.601-1.655A3.927 3.927 0 0 1 4.5 14.171a.234.234 0 0 1 .234-.324c.46.046.923.004 1.366-.126A3.92 3.92 0 0 1 3 10.296a.234.234 0 0 1 .323-.234c.448.197.931.302 1.42.306a3.849 3.849 0 0 1-1.537-4.442.485.485 0 0 1 .818-.162 11.105 11.105 0 0 0 7.558 3.489 3.604 3.604 0 0 1-.108-.9 3.917 3.917 0 0 1 6.749-2.643 7.807 7.807 0 0 0 2.148-.746c.05-.03.112-.03.161 0 .031.05.031.113 0 .162a3.928 3.928 0 0 1-1.581 1.798 7.709 7.709 0 0 0 1.797-.431.144.144 0 0 1 .162 0 .153.153 0 0 1 .063.224Z" fill="#000"/></svg>