<svg width="45" height="45" fill="none" xmlns="http://www.w3.org/2000/svg"><path fill-rule="evenodd" clip-rule="evenodd" d="M21.094 10.853c-6.847.704-12.188 6.49-12.188 13.522 0 7.508 6.086 13.594 13.594 13.594 7.033 0 12.818-5.34 13.522-12.188H22.5c-.777 0-1.406-.63-1.406-1.406V10.853Zm-15 13.522c0-9.06 7.345-16.406 16.406-16.406.777 0 1.406.63 1.406 1.406v13.594H37.5c.777 0 1.406.63 1.406 1.406 0 9.06-7.345 16.406-16.406 16.406-9.06 0-16.406-7.345-16.406-16.406Z" fill="#8D5543"/><path fill-rule="evenodd" clip-rule="evenodd" d="M29.063 8.763v9.05h9.049a12.21 12.21 0 0 0-9.05-9.05Zm-.942-3.022c6.788.844 12.169 6.225 13.013 13.013.128 1.027-.724 1.871-1.759 1.871H27.187a.937.937 0 0 1-.937-.938V7.5c0-1.036.844-1.887 1.871-1.76Z" fill="#8D5543"/></svg>