<svg width="45" height="45" fill="none" xmlns="http://www.w3.org/2000/svg"><path fill-rule="evenodd" clip-rule="evenodd" d="M21.403 4.49a3.733 3.733 0 0 1 2.194 0l5.598 1.722a31.353 31.353 0 0 1 8.233 3.917c1.975 1.322 1.039 4.402-1.338 4.402H8.91c-2.377 0-3.313-3.08-1.338-4.402a31.353 31.353 0 0 1 8.233-3.917l5.598-1.721Zm1.367 2.69a.92.92 0 0 0-.54 0L16.63 8.9a28.537 28.537 0 0 0-6.317 2.819h24.372a28.534 28.534 0 0 0-6.317-2.82L22.77 7.18Z" fill="#8D5543"/><path d="M7.969 39.375c0-.777.63-1.406 1.406-1.406h26.25a1.406 1.406 0 1 1 0 2.812H9.375c-.777 0-1.406-.63-1.406-1.406ZM11.719 31.875a1.406 1.406 0 1 0 2.812 0v-11.25a1.406 1.406 0 0 0-2.812 0v11.25ZM22.5 33.281c-.777 0-1.406-.63-1.406-1.406v-11.25a1.406 1.406 0 0 1 2.812 0v11.25c0 .777-.63 1.406-1.406 1.406ZM30.469 31.875a1.406 1.406 0 1 0 2.812 0v-11.25a1.406 1.406 0 0 0-2.812 0v11.25Z" fill="#8D5543"/></svg>