<svg width="45" height="45" fill="none" xmlns="http://www.w3.org/2000/svg"><path d="M14.031 9.861c-2.146.24-3.863 1.934-4.111 4.057a73.879 73.879 0 0 0 0 17.164c.248 2.123 1.966 3.817 4.111 4.056a76.881 76.881 0 0 0 16.938 0c2.145-.24 3.863-1.933 4.111-4.056.48-4.097.614-8.224.405-12.338a.376.376 0 0 1 .11-.285l1.947-1.948a.372.372 0 0 1 .635.233 76.687 76.687 0 0 1-.303 14.665c-.403 3.444-3.168 6.142-6.593 6.525a79.694 79.694 0 0 1-17.562 0c-3.425-.383-6.19-3.08-6.593-6.525a76.693 76.693 0 0 1 0-17.818c.403-3.444 3.168-6.142 6.593-6.525a79.692 79.692 0 0 1 17.562 0 7.478 7.478 0 0 1 3.299 1.198.36.36 0 0 1 .048.555l-1.506 1.505a.396.396 0 0 1-.467.062 4.662 4.662 0 0 0-1.686-.525 76.879 76.879 0 0 0-16.938 0Z" fill="#8D5543"/><path d="M39.432 11.307a1.406 1.406 0 1 0-1.989-1.989l-15.88 15.88-4.631-4.63a1.406 1.406 0 1 0-1.989 1.989l5.625 5.625c.55.549 1.44.549 1.989 0l16.875-16.875Z" fill="#8D5543"/></svg>