<svg width="45" height="45" fill="none" xmlns="http://www.w3.org/2000/svg"><path fill-rule="evenodd" clip-rule="evenodd" d="M13.594 12.433V10.24a3.281 3.281 0 0 1 2.794-3.245l2.288-.343c2.535-.38 5.113-.38 7.649 0l2.287.343a3.281 3.281 0 0 1 2.794 3.245v2.193l3.214.26a5.363 5.363 0 0 1 4.863 4.488 50.862 50.862 0 0 1 0 16.263 5.363 5.363 0 0 1-4.863 4.488l-3.51.284c-5.73.462-11.49.462-17.22 0l-3.51-.284a5.363 5.363 0 0 1-4.863-4.488 50.866 50.866 0 0 1 0-16.263 5.363 5.363 0 0 1 4.863-4.489l3.214-.259Zm5.499-3a22.968 22.968 0 0 1 6.814 0l2.288.343c.229.035.399.232.399.464v1.996c-4.06-.232-8.129-.232-12.188 0V10.24c0-.232.17-.43.4-.464l2.287-.343Zm-4.977 5.78c5.58-.45 11.188-.45 16.768 0l3.51.283a2.55 2.55 0 0 1 2.312 2.135c.117.721.218 1.445.301 2.17a32.845 32.845 0 0 1-29.014 0 48.07 48.07 0 0 1 .3-2.17 2.55 2.55 0 0 1 2.313-2.135l3.51-.283Zm-6.374 7.58a35.658 35.658 0 0 0 29.516 0 48.056 48.056 0 0 1-.552 10.202 2.55 2.55 0 0 1-2.312 2.134l-3.51.283c-5.58.45-11.188.45-16.768 0l-3.51-.283a2.55 2.55 0 0 1-2.312-2.134 48.054 48.054 0 0 1-.552-10.201Z" fill="#8D5543"/></svg>