<svg width="100" height="100" fill="none" xmlns="http://www.w3.org/2000/svg"><path d="M97.714 64.945a50.169 50.169 0 0 1-32.8 32.78l32.8-32.78ZM100 50a49.506 49.506 0 0 1-.484 6.923L56.879 99.528c-2.28.313-4.578.47-6.879.472-1.418 0-2.824-.055-4.209-.176L99.824 45.78A48.84 48.84 0 0 1 100 50ZM99.055 40.341 40.341 99.055a48.795 48.795 0 0 1-8.374-2.418l64.659-64.692a48.101 48.101 0 0 1 2.429 8.396ZM94.725 27.637l-67.066 67.1a51.36 51.36 0 0 1-6.725-4.066L90.637 20.9a50.45 50.45 0 0 1 4.088 6.737ZM87.9 17.418 17.462 87.934a49.788 49.788 0 0 1-5.4-5.4L82.582 12.1a50.408 50.408 0 0 1 5.318 5.318ZM79.1 9.363 9.33 79.066a51.36 51.36 0 0 1-4.066-6.725l67.1-67.066A50.447 50.447 0 0 1 79.1 9.363ZM68.055 3.374 3.363 68.033a48.8 48.8 0 0 1-2.418-8.374L59.659.945a48.1 48.1 0 0 1 8.396 2.429ZM54.22.176.176 54.209A48.402 48.402 0 0 1 0 50c.002-2.301.16-4.6.473-6.879L43.077.483A49.706 49.706 0 0 1 50 0c1.418 0 2.824.055 4.22.176ZM35.066 2.286 2.275 35.1A50.157 50.157 0 0 1 35.066 2.286Z" fill="#8D5543" fill-opacity=".44"/></svg>