<svg width="465" height="30" fill="none" xmlns="http://www.w3.org/2000/svg"><path d="M150.12 11.864c0-2.047-8.097-4.218-22.135-4.218-15.771 0-33.069 2.83-35.746 8.486-2.703 5.718 11.819 8.245 26.41 8.245 14.586 0 22.264-1.393 30.062-3.261-6.733-2.079-15.417-1.111-17.059-.909-1.816.223-4.2.532-9.042.532-5.653 0-11.386-.627-11.386-3.2 36.139-.85 38.896-3.626 38.896-5.675Zm-17.91.343c-.234.631-1.29 1.723-19.578 2.323 3.857-3.357 11.212-3.606 14.611-3.606 3.185 0 5.215.605 4.967 1.283ZM71 12.753s-7.774 5.975-8.376 6.477c-.21-.502-5.897-11.235-5.897-11.235-13.238 0-20.32 2.305-24.052 4.755 0 0-9.455 5.993-10.221 6.494-.045-.47-1.453-6.431-1.453-6.431C20.199 9.816 9.042 8.002 0 8.002l10.874 16.262c13.889-.011 21.324-2.313 25.245-4.758 0 0 8.316-5.288 8.66-5.528.084.229 5.981 10.286 5.981 10.286 13.9 0 21.399-2.156 25.435-4.513L95.697 8c-13.735 0-20.966 2.3-24.698 4.752Zm130.168-5.13c-8.544 0-15.128 1.139-20.672 2.821l.01-.012 4.927-9.771c-11.376 0-20.672 2.428-22.439 6.03l-8.654 17.446c6.564 0 13.516-.468 17.268-1.65 3.359 1.058 8.351 1.901 15.74 1.901 19.185 0 32.372-5.467 32.372-10.6 0-4.683-9.296-6.164-18.552-6.164Zm-1.761 8.382c-1.991 2.87-8.495 4.805-14.796 4.805-6.349 0-9.032-.688-9.032-.688 1.185-2.509 1.971-4.047 4.285-5.372 2.309-1.325 7.768-3.44 13.481-3.44 5.554 0 8.052 1.827 6.062 4.695Zm68.406-8.002h-13.431l.064-.172c.916-2.15 3.016-3.278 9.814-3.451 4.643-.118 6.743-.71 7.231-1.349a266.07 266.07 0 0 0 1.682-2.274C246.23.72 237.785 3.571 235.63 7.904l-.05.098-.263.002c-4.375 0-9.177 1.214-10.018 2.756l-.293.568h8.957l-7.519 15.261-2.279 2.743.925.007c12.575-.117 20.667-2.549 22.454-6.09l5.872-11.921h4.21c4.121 0 8.963-1.013 9.859-2.705l.328-.62Zm69.701-.283c-15.477 0-30.063 2.793-34.548 7.186-4.479 4.392 2.331 9.579 25.076 9.579 22.755 0 35.827-5.407 35.827-9.895 0-4.491-12.381-6.87-26.355-6.87Zm6.274 8.155c-.802 1.992-4.384 5.002-14.176 5.002-9.836 0-8.438-3.532-7.486-5.208 1.021-1.798 5.139-4.341 13.904-4.341 7.917 0 8.663 2.297 7.758 4.547Zm96.509-3.122s-7.774 5.975-8.37 6.477c-.214-.502-5.901-11.235-5.901-11.235-13.238 0-20.317 2.305-24.052 4.755 0 0-9.45 5.993-10.218 6.494-.046-.47-1.453-6.431-1.453-6.431-.801-2.997-11.964-4.811-21.001-4.811l10.869 16.262c13.889-.011 21.329-2.313 25.251-4.758 0 0 8.315-5.288 8.657-5.528.086.229 5.978 10.286 5.978 10.286 13.901 0 21.399-2.156 25.434-4.513L465 8c-13.739 0-20.971 2.3-24.703 4.752ZM280.453.757l-11.276 22.298-.03-.004-2.29 2.757.921.008c12.143-.037 20.757-2.65 22.379-5.943l6.513-12.798c1.976-3.898-7.503-6.318-16.217-6.318Z" fill="#000"/></svg>