<svg width="100" height="100" fill="none" xmlns="http://www.w3.org/2000/svg"><path d="M9.21 0 0 9.21V0h9.21ZM25.21 0 0 25.21V14.87L14.87 0h10.34ZM41.19 0 0 41.19V30.85L30.85 0h10.34ZM57.19 0 0 57.19V46.85L46.85 0h10.34ZM73.19 0 0 73.19V62.85L62.85 0h10.34Z" fill="#8D5543" fill-opacity=".34"/><path d="M89.17 0 0 89.17V78.83L78.83 0h10.34Z" fill="#8D5543" fill-opacity=".44"/><path d="M100 0v5.17L5.17 100H0v-5.17L94.83 0H100ZM100 10.83v10.34L21.17 100H10.83L100 10.83ZM100 26.81v10.34L37.15 100H26.81L100 26.81ZM100 42.81v10.34L53.15 100H42.81L100 42.81ZM100 58.81v10.34L69.15 100H58.81L100 58.81ZM100 74.79v10.34L85.13 100H74.79L100 74.79ZM100 90.79V100h-9.21l9.21-9.21Z" fill="#8D5543" fill-opacity=".34"/></svg>