<svg width="79" height="74" fill="none" xmlns="http://www.w3.org/2000/svg"><path d="M62.655 0c-4.333.004-8.488 1.469-11.552 4.072-3.064 2.604-4.788 6.134-4.793 9.816v9.259H32.69v-9.259c-.022-3.67-1.754-7.185-4.817-9.774C24.81 1.524 20.665.07 16.345.07S7.88 1.525 4.817 4.114C1.754 6.704.022 10.217 0 13.888v46.295c.022 3.67 1.754 7.185 4.817 9.774C7.88 72.547 12.024 74 16.345 74c4.32 0 8.465-1.454 11.528-4.043 3.063-2.589 4.795-6.103 4.817-9.774v-4.63L27.24 53.24v6.944c0 1.831-.639 3.621-1.836 5.144-1.197 1.523-2.9 2.71-4.89 3.41a12.7 12.7 0 0 1-6.296.527c-2.114-.358-4.056-1.24-5.58-2.534-1.524-1.295-2.561-2.945-2.982-4.741-.42-1.796-.204-3.658.62-5.35.825-1.691 2.222-3.138 4.014-4.155 1.792-1.017 3.899-1.56 6.054-1.56h46.31c2.156 0 4.262.543 6.054 1.56 1.792 1.018 3.189 2.464 4.014 4.156.824 1.691 1.04 3.553.62 5.349-.42 1.796-1.459 3.446-2.983 4.74-1.523 1.296-3.465 2.178-5.579 2.535a12.7 12.7 0 0 1-6.296-.527c-1.99-.7-3.693-1.887-4.89-3.41-1.197-1.523-1.836-3.313-1.836-5.144v-4.63L46.31 53.24v6.944c.023 3.67 1.754 7.185 4.817 9.774C54.19 72.547 58.335 74 62.655 74s8.465-1.454 11.528-4.043c3.063-2.589 4.795-6.103 4.817-9.774V13.888c-.005-3.682-1.728-7.212-4.793-9.815C71.144 1.469 66.99.004 62.655 0ZM51.76 13.888c0-1.83.639-3.621 1.836-5.144 1.197-1.522 2.899-2.71 4.89-3.41 1.991-.7 4.182-.884 6.296-.527s4.055 1.239 5.58 2.534c1.523 1.295 2.561 2.945 2.981 4.74.421 1.797.205 3.658-.62 5.35-.824 1.692-2.22 3.138-4.012 4.155-1.793 1.018-3.9 1.56-6.055 1.56H51.76v-9.258ZM16.345 4.63c2.889.003 5.659.98 7.701 2.716 2.043 1.735 3.192 4.089 3.195 6.543v9.259H16.345a12.598 12.598 0 0 1-4.19-.688 11.21 11.21 0 0 1-3.56-2.003 9.328 9.328 0 0 1-2.379-3.011 8.069 8.069 0 0 1-.836-3.557c0-1.22.284-2.43.836-3.556a9.328 9.328 0 0 1 2.38-3.011 11.211 11.211 0 0 1 3.558-2.004 12.6 12.6 0 0 1 4.191-.688Zm46.31 41.665h-46.31c-4.023-.003-7.905 1.26-10.897 3.545V24.23c2.992 2.285 6.874 3.548 10.897 3.545h46.31c4.023.003 7.905-1.26 10.897-3.545V49.84c-2.992-2.285-6.874-3.548-10.897-3.545Z" fill="#23A3EA"/></svg>