<svg width="100" height="100" fill="none" xmlns="http://www.w3.org/2000/svg"><g clip-path="url('#clip0_20_96')" fill="#8D5543" fill-opacity=".44"><path d="M100 15.4v5.59L84.28 5.6 67.13 22.4 49.99 5.6 32.85 22.4 15.71 5.6 0 21v-5.6L15.71 0l17.14 16.8L49.99 0l17.14 16.8L84.28 0 100 15.4Z"/><path d="M100 34.8v5.59L84.28 25 67.13 41.8 49.99 25 32.85 41.8 15.71 25 0 40.4v-5.6l15.71-15.4 17.14 16.8 17.14-16.8 17.14 16.8 17.15-16.8L100 34.8ZM100 73.6v5.59L84.28 63.8 67.13 80.6 49.99 63.8 32.85 80.6 15.71 63.8 0 79.2v-5.6l15.71-15.4L32.85 75l17.14-16.8L67.13 75l17.15-16.8L100 73.6Z"/><path d="M100 54.2v5.59L84.28 44.4 67.13 61.2 49.99 44.4 32.85 61.2 15.71 44.4 0 59.8v-5.6l15.71-15.4 17.14 16.8 17.14-16.8 17.14 16.8 17.15-16.8L100 54.2ZM100 93v5.59L84.28 83.2 67.13 100 49.99 83.2 32.85 100 15.71 83.2 0 98.6V93l15.71-15.4 17.14 16.8 17.14-16.8 17.14 16.8 17.15-16.8L100 93Z"/></g><defs><clipPath id="clip0_20_96"><path fill="#fff" d="M0 0h100v100H0z"/></clipPath></defs></svg>